<?xml version="1.0" encoding="UTF-8"?>
<svg version="1.1" xmlns="http://www.w3.org/2000/svg" width="512" height="512" viewBox="0 0 512 512">
<defs><clipPath id="rounded"><rect width="512" height="512" rx="115"/></clipPath></defs>
<g clip-path="url(#rounded)">
<path d="M0 0 C168.96 0 337.92 0 512 0 C512 168.96 512 337.92 512 512 C343.04 512 174.08 512 0 512 C0 343.04 0 174.08 0 0 Z " fill="#468BC3" transform="translate(0,0)"/>
<path d="M0 0 C1.12773433 -0.00311998 2.25546866 -0.00623996 3.41737676 -0.00945449 C7.15641882 -0.01736462 10.89529542 -0.01113832 14.63433838 -0.00482178 C17.33098315 -0.00753468 20.02761693 -0.01102555 22.72425842 -0.01544189 C29.263422 -0.02429469 35.80253944 -0.02243268 42.34170476 -0.01661661 C47.65787342 -0.01208539 52.97402923 -0.01149351 58.29019928 -0.01366425 C59.04906375 -0.01397071 59.80792821 -0.01427718 60.58978857 -0.01459293 C62.13173205 -0.01523243 63.67367553 -0.01588085 65.215619 -0.01653811 C79.64340308 -0.02222894 94.07116167 -0.01570233 108.49894157 -0.00493738 C120.86586392 0.00400424 133.23274873 0.00243864 145.59967041 -0.0067749 C159.98480161 -0.01748712 174.36991054 -0.02168734 188.75504518 -0.01555037 C190.28984467 -0.01491331 191.82464416 -0.01428457 193.35944366 -0.01366425 C194.11447274 -0.01335569 194.86950181 -0.01304714 195.64741056 -0.01272924 C200.95630885 -0.0110057 206.26519296 -0.0139099 211.57408905 -0.01862335 C218.04475794 -0.02424245 224.51537833 -0.02269383 230.98604169 -0.01206186 C234.28441273 -0.00682009 237.58268667 -0.00580683 240.88105965 -0.01136017 C244.46155824 -0.01683247 248.04183025 -0.00996086 251.62231445 0 C252.65724211 -0.00446144 253.69216976 -0.00892289 254.75845885 -0.01351953 C267.67601828 0.05609088 277.61286796 3.38735295 287.20562744 12.25396729 C296.53930907 22.33591875 298.55395885 34.85244751 298.35015869 48.14459229 C298.34591385 49.21521912 298.34166901 50.28584595 298.33729553 51.38891602 C298.32069319 54.76087126 298.28307684 58.13219705 298.24468994 61.50396729 C298.22961923 63.80994815 298.21593504 66.11593852 298.20367432 68.42193604 C298.17085052 74.03282273 298.1208398 79.64335002 298.05718994 85.25396729 C298.90789062 85.31020264 299.75859131 85.36643799 300.6350708 85.42437744 C306.7318717 85.85502415 312.63675133 86.38558563 318.61968994 87.62896729 C323.12448734 88.54783404 327.60908025 89.35455183 332.17047119 89.94146729 C353.97684943 92.7529751 353.97684943 92.7529751 361.90093994 102.31256104 C365.573479 108.47895263 365.3214005 114.61151258 365.25250244 121.55865479 C365.2482576 123.17732956 365.2482576 123.17732956 365.243927 124.82870483 C365.23276654 128.26224027 365.20766924 131.69551119 365.18218994 135.12896729 C365.17215481 137.46229684 365.16302989 139.7956305 365.15484619 142.12896729 C365.13284073 147.83739028 365.09940421 153.54565988 365.05718994 159.25396729 C365.6816098 159.54089951 366.30602966 159.82783173 366.94937134 160.12345886 C369.9177162 161.71550234 370.70658916 163.16920752 372.05718994 166.25396729 C372.34512096 169.19176911 372.47828047 171.90964272 372.45562744 174.84381104 C372.45849762 175.66595596 372.4613678 176.48810089 372.46432495 177.3351593 C372.46636086 179.06908865 372.46086411 180.80304122 372.44830322 182.53692627 C372.43226281 185.17946201 372.44815672 187.82046365 372.46734619 190.46295166 C372.46536327 192.15240814 372.46151859 193.84186367 372.45562744 195.53131104 C372.46473648 196.70813698 372.46473648 196.70813698 372.47402954 197.90873718 C372.41254058 202.74773481 371.70447859 206.05244113 369.05718994 210.25396729 C364.22386338 214.58531631 360.33992081 214.77532492 354.18218994 214.50396729 C353.39843994 214.48592041 352.61468994 214.46787354 351.80718994 214.44927979 C349.88998806 214.40251876 347.97342279 214.33078731 346.05718994 214.25396729 C346.01593994 215.49146729 345.97468994 216.72896729 345.93218994 218.00396729 C344.58244533 229.64095461 336.69178993 240.09432747 328.31109619 247.87506104 C323.46810955 251.6031155 317.68822439 253.97111548 312.05718994 256.25396729 C311.15613525 256.62392822 310.25508057 256.99388916 309.32672119 257.37506104 C298.78103633 260.20992256 285.56746035 259.709345 276.05718994 254.25396729 C275.09812744 253.79119385 274.13906494 253.32842041 273.15093994 252.85162354 C261.27554161 246.7189999 252.40978722 235.92628924 248.05718994 223.25396729 C247.72718994 220.28396729 247.39718994 217.31396729 247.05718994 214.25396729 C195.57718994 214.25396729 144.09718994 214.25396729 91.05718994 214.25396729 C90.72718994 217.22396729 90.39718994 220.19396729 90.05718994 223.25396729 C85.72656836 235.5962388 77.11625718 246.60864108 65.45953369 252.58599854 C53.54235455 258.27411568 39.49745479 261.35579182 26.61187744 256.89849854 C11.10817908 250.70629857 1.79730184 241.19320374 -5.81390381 226.40631104 C-6.81384925 223.61407584 -7.22241977 221.47220426 -7.5133667 218.5569458 C-7.59599258 217.75007828 -7.67861847 216.94321075 -7.76374817 216.1118927 C-7.82283859 215.49877731 -7.88192902 214.88566193 -7.94281006 214.25396729 C-9.15340088 214.27491455 -10.3639917 214.29586182 -11.61126709 214.31744385 C-16.11749367 214.39003268 -20.6236689 214.43583564 -25.13031006 214.47369385 C-27.07798972 214.49376634 -29.02560943 214.5210306 -30.9730835 214.5557251 C-33.77824726 214.60443581 -36.58261193 214.62697969 -39.38812256 214.64459229 C-40.2539798 214.66523743 -41.11983704 214.68588257 -42.01193237 214.70715332 C-47.45628857 214.70915829 -50.74600978 214.0623361 -54.94281006 210.25396729 C-58.22393647 205.44737069 -58.39751135 201.18491146 -58.37640381 195.56646729 C-58.38164566 194.7457373 -58.38688751 193.92500732 -58.39228821 193.07940674 C-58.39868561 191.35147224 -58.39740108 189.62349406 -58.38885498 187.89556885 C-58.38033487 185.26163845 -58.40915205 182.6298719 -58.44085693 179.99615479 C-58.44246901 178.3112596 -58.44189128 176.6263606 -58.43890381 174.94146729 C-58.45575478 173.76934692 -58.45575478 173.76934692 -58.47294617 172.57354736 C-58.40695084 167.36080191 -57.39220233 164.38402192 -53.94281006 160.25396729 C-52.45781006 159.26396729 -52.45781006 159.26396729 -50.94281006 158.25396729 C-50.49139808 156.02206555 -50.49139808 156.02206555 -50.57099915 153.38668823 C-50.56424164 152.35792572 -50.55748413 151.32916321 -50.55052185 150.26922607 C-50.55824112 149.13577759 -50.56596039 148.0023291 -50.57391357 146.83453369 C-50.57014709 145.6440744 -50.56638062 144.45361511 -50.5625 143.2270813 C-50.55435869 139.95366778 -50.55920458 136.6805513 -50.56842542 133.40715075 C-50.57393117 129.97472937 -50.55945281 126.54240677 -50.54606628 123.11001587 C-50.50985539 112.8877129 -50.50362992 102.66541547 -50.50616455 92.4430542 C-50.50788119 84.51586302 -50.5005699 76.5889023 -50.46618599 68.66177499 C-50.45221861 65.24968905 -50.44619469 61.83798991 -50.45923042 58.42589188 C-50.47108324 54.60611281 -50.45855198 50.78708828 -50.44110107 46.96734619 C-50.45571632 45.29753693 -50.45571632 45.29753693 -50.47062683 43.59399414 C-50.35779413 31.14170087 -46.54641467 20.01169552 -37.76702881 11.02740479 C-26.69272768 0.79065584 -14.63581203 -0.06364186 0 0 Z " fill="#020302" transform="translate(98.94281005859375,126.74603271484375)"/>
<path d="M0 0 C1.13530501 -0.00765109 2.27061003 -0.01530219 3.44031823 -0.02318513 C7.22327186 -0.04373051 11.00561185 -0.03588309 14.78860474 -0.02792358 C17.50950868 -0.03443983 20.23037907 -0.04686289 22.95126343 -0.05889893 C29.56205593 -0.08432869 36.17268571 -0.08798842 42.7835189 -0.0832984 C48.15981672 -0.07972461 53.53606537 -0.08324721 58.91235733 -0.09174728 C60.06245361 -0.09353285 60.06245361 -0.09353285 61.23578415 -0.09535449 C62.79366604 -0.09777813 64.35154793 -0.10020639 65.9094298 -0.10263924 C80.50183886 -0.12436547 95.09415535 -0.12007697 109.68656959 -0.10786955 C123.01838785 -0.0975328 136.34991378 -0.12004201 149.68167423 -0.15806599 C163.39138684 -0.19686632 177.1009613 -0.21332723 190.81072915 -0.20581949 C198.49947556 -0.20200203 206.1879732 -0.20690585 213.87667465 -0.23524857 C220.42210403 -0.25913398 226.96713147 -0.26182215 233.51256667 -0.23766823 C236.84814074 -0.22592983 240.18238198 -0.22686259 243.51800156 -0.24767303 C271.04177814 -0.40696787 271.04177814 -0.40696787 280.57533073 8.66301537 C285.80343356 14.196501 287.44116897 17.85257397 287.32424927 25.52139282 C286.30999878 25.53597534 285.29574829 25.55055786 284.25076294 25.56558228 C280.48770897 25.62355535 276.72525406 25.70078741 272.962677 25.78384399 C271.33419518 25.81709818 269.70559795 25.84512866 268.07693481 25.86782837 C265.73569566 25.90136639 263.39551441 25.95367867 261.05471802 26.00967407 C260.32649338 26.016064 259.59826874 26.02245392 258.84797668 26.02903748 C255.00210598 26.09640023 255.00210598 26.09640023 251.63116455 27.74423218 C249.91335952 30.08012612 249.94984604 31.50280978 249.95193481 34.38833618 C249.94259163 35.87018654 249.94259163 35.87018654 249.93305969 37.38197327 C249.94226944 38.44763016 249.95147919 39.51328705 249.96096802 40.61123657 C249.96046951 41.70730728 249.95997101 42.80337799 249.9594574 43.93266296 C249.96179908 46.25189017 249.97153309 48.57111986 249.98806763 50.89028931 C250.01163307 54.44138319 250.00863236 57.99172514 250.00198364 61.5428772 C250.00756124 63.7948348 250.01467163 66.04678924 250.02346802 68.29873657 C250.02210091 69.89418556 250.02210091 69.89418556 250.02070618 71.52186584 C250.03023819 72.51291824 250.0397702 73.50397064 250.04959106 74.52505493 C250.05650215 75.83052528 250.05650215 75.83052528 250.06355286 77.16236877 C250.34303827 79.69141326 251.0519705 81.33662721 252.32424927 83.52139282 C255.59461655 83.66649444 258.86415933 83.75538655 262.13674927 83.83389282 C263.0655188 83.87578735 263.99428833 83.91768188 264.95120239 83.96084595 C267.50099171 84.00687103 269.82030907 84.01273313 272.32424927 83.52139282 C274.07763131 81.08556027 274.07763131 81.08556027 275.32424927 78.52139282 C278.46096802 78.03311157 278.46096802 78.03311157 282.01174927 78.20889282 C283.19124146 78.25401001 284.37073364 78.2991272 285.58596802 78.34561157 C286.48960083 78.40361938 287.39323364 78.4616272 288.32424927 78.52139282 C288.51116333 79.1375647 288.69807739 79.75373657 288.89065552 80.38858032 C290.99664597 83.52174323 293.75940476 83.86851293 297.26174927 84.64639282 C297.97339233 84.81469604 298.6850354 84.98299927 299.41824341 85.15640259 C304.67588069 86.32888708 309.902043 86.97949973 315.26174927 87.45889282 C323.14993318 88.17848179 330.90925343 89.33460015 338.69924927 90.77139282 C339.77553589 90.95178101 340.85182251 91.13216919 341.96072388 91.31802368 C343.48258301 91.61205078 343.48258301 91.61205078 345.03518677 91.91201782 C345.93543579 92.07734009 346.83568481 92.24266235 347.76321411 92.41299438 C351.38530849 93.98061197 353.59069016 96.02563166 355.32424927 99.52139282 C355.98048397 103.08633333 355.90817796 106.55530864 355.81253052 110.16983032 C355.80545578 111.1823587 355.79838104 112.19488708 355.79109192 113.23809814 C355.76320006 116.458295 355.70046935 119.67672539 355.63674927 122.89639282 C355.61165975 125.08516972 355.58884773 127.27397399 355.56838989 129.46279907 C355.51339087 134.81626194 355.42981701 140.16870116 355.32424927 145.52139282 C352.68424927 145.85139282 350.04424927 146.18139282 347.32424927 146.52139282 C345.10652436 154.80089915 344.72153812 163.00059246 344.32424927 171.52139282 C341.94225843 169.26815824 340.06268454 166.85762565 338.13674927 164.20889282 C334.63918131 159.71513607 331.16984271 156.49762027 326.32424927 153.52139282 C325.46960083 152.96065063 324.61495239 152.39990845 323.73440552 151.82217407 C311.81745907 145.10421083 296.24675327 145.72297587 283.21389771 148.9593811 C269.80793193 152.9465301 260.50351738 163.70732952 254.01174927 175.52139282 C251.87060653 180.00584628 251.13736181 184.64271755 250.32424927 189.52139282 C245.70424927 189.52139282 241.08424927 189.52139282 236.32424927 189.52139282 C236.31616241 187.50881378 236.30807556 185.49623474 236.29974365 183.42266846 C236.22275824 164.49826764 236.13482595 145.57394053 236.03672218 126.64963722 C235.98654566 116.91940517 235.94010344 107.18918176 235.90237427 97.45889282 C235.86948996 88.98050745 235.82967868 80.50218814 235.78145921 72.02387559 C235.75615866 67.53238533 235.73438801 63.0409391 235.7209053 58.54939651 C235.70811706 54.32560004 235.68609809 50.1019543 235.65686607 45.87824059 C235.64776485 44.32459195 235.64209417 42.77091903 235.64003563 41.2172451 C235.63673091 39.10268509 235.62130318 36.98855715 235.60272217 34.87408447 C235.59719141 33.6886587 235.59166065 32.50323292 235.5859623 31.28188515 C235.60654243 28.37887863 235.60654243 28.37887863 233.32424927 26.52139282 C230.22779799 26.2132904 230.22779799 26.2132904 226.53543091 26.26260376 C225.83770065 26.25909912 225.1399704 26.25559448 224.4210968 26.25198364 C222.10876591 26.24316292 219.79673966 26.24901717 217.48440552 26.25576782 C215.88019248 26.25442111 214.27597983 26.25248053 212.67176819 26.24996948 C209.30662151 26.24701764 205.9415809 26.25131719 202.57644653 26.26065063 C198.26085227 26.27203609 193.945507 26.26549192 189.62992191 26.25350571 C186.31596499 26.24628088 183.00206714 26.24857805 179.68810844 26.25376129 C178.09687712 26.25509654 176.50564045 26.25345442 174.91441536 26.24880219 C172.69028635 26.2437277 170.46656107 26.25146029 168.24246216 26.26260376 C166.97608414 26.26419495 165.70970612 26.26578613 164.404953 26.26742554 C161.15402163 26.28498714 161.15402163 26.28498714 158.32424927 28.52139282 C157.85864529 31.41033131 157.85864529 31.41033131 157.92552185 34.87408447 C157.91887502 35.53324525 157.9122282 36.19240603 157.90537995 36.87154138 C157.88665907 39.09042932 157.88936118 41.30878234 157.89187622 43.52774048 C157.88286456 45.11423001 157.87253881 46.70071256 157.86099243 48.28718567 C157.83332612 52.60306348 157.82412492 56.91880954 157.81813836 61.23476458 C157.80877963 65.74184968 157.78257839 70.24883539 157.75813293 74.75585938 C157.71439514 83.29456286 157.68589298 91.83324714 157.66280955 100.37202871 C157.6357968 110.09141507 157.59188296 119.81070179 157.54652083 129.53001714 C157.45357028 149.52710294 157.38416874 169.52417889 157.32424927 189.52139282 C136.53424927 189.52139282 115.74424927 189.52139282 94.32424927 189.52139282 C93.33424927 185.06639282 93.33424927 185.06639282 92.32424927 180.52139282 C88.70611016 171.22047013 83.99086783 163.99602829 76.32424927 157.52139282 C75.54436646 156.84721313 74.76448364 156.17303345 73.96096802 155.47842407 C71.02028493 153.29578374 68.09821038 151.8378133 64.76174927 150.33389282 C63.64671021 149.82471313 62.53167114 149.31553345 61.38284302 148.79092407 C52.08127616 144.93012046 38.77538455 144.98763501 29.32424927 148.52139282 C20.34136716 152.50337446 12.24428823 156.58741811 6.26174927 164.58389282 C5.83128296 165.15317505 5.40081665 165.72245728 4.95730591 166.30899048 C-0.20480074 173.33711901 -4.08840059 180.71114065 -4.67575073 189.52139282 C-8.63575073 189.52139282 -12.59575073 189.52139282 -16.67575073 189.52139282 C-16.69033325 188.32538452 -16.70491577 187.12937622 -16.71994019 185.89712524 C-16.7778766 181.46322607 -16.85510948 177.02983725 -16.9382019 172.59634399 C-16.97147323 170.67683185 -16.99949827 168.75722134 -17.02218628 166.83755493 C-17.05569194 164.0793971 -17.10800476 161.3221424 -17.16403198 158.56436157 C-17.17042191 157.70489426 -17.17681183 156.84542694 -17.18339539 155.95991516 C-17.21308662 154.75900993 -17.21308662 154.75900993 -17.24337769 153.53384399 C-17.25448074 152.82991013 -17.2655838 152.12597626 -17.27702332 151.40071106 C-17.59609821 149.05609293 -17.59609821 149.05609293 -20.67575073 146.52139282 C-24.96575073 146.19139282 -29.25575073 145.86139282 -33.67575073 145.52139282 C-33.67575073 110.21139282 -33.67575073 74.90139282 -33.67575073 38.52139282 C-23.44575073 38.52139282 -13.21575073 38.52139282 -2.67575073 38.52139282 C-2.67575073 56.67139282 -2.67575073 74.82139282 -2.67575073 93.52139282 C-7.29575073 93.85139282 -11.91575073 94.18139282 -16.67575073 94.52139282 C-18.16075073 95.01639282 -18.16075073 95.01639282 -19.67575073 95.52139282 C-19.84252356 98.93795306 -19.84252356 98.93795306 -19.67575073 102.52139282 C-16.90624982 105.29089373 -15.29318264 104.77285491 -11.41244507 104.77536011 C-10.43807125 104.78004008 -10.43807125 104.78004008 -9.44401312 104.7848146 C-7.25749604 104.79282082 -5.07125448 104.78646093 -2.88473511 104.78018188 C-1.32120093 104.78289059 0.24233196 104.78645084 1.80586243 104.790802 C6.0599065 104.79994265 10.31385388 104.79637488 14.5678997 104.79004383 C19.01260521 104.78499248 23.45730224 104.78967287 27.90200806 104.79281616 C35.36715181 104.79645834 42.83225604 104.79165012 50.2973938 104.78213501 C58.93727425 104.77124997 67.57706033 104.77477537 76.2169385 104.78578782 C83.62502493 104.79485354 91.03308289 104.79614948 98.44117308 104.79091048 C102.87005378 104.78778684 107.29889007 104.78739222 111.72776794 104.79398346 C115.89082079 104.79974593 120.05375154 104.7957803 124.21679115 104.78419495 C125.74788014 104.78154245 127.27897934 104.78232345 128.81006432 104.78672028 C130.89383114 104.79215411 132.97720226 104.78536843 135.0609436 104.77536011 C136.22902306 104.77460606 137.39710251 104.77385201 138.60057831 104.7730751 C141.47129877 104.80037244 141.47129877 104.80037244 143.32424927 102.52139282 C143.64641036 99.38470967 143.64641036 99.38470967 143.61477661 95.64077759 C143.62149384 94.93329376 143.62821106 94.22580994 143.63513184 93.49688721 C143.65417009 91.15212024 143.65803884 88.80763858 143.66018677 86.46279907 C143.66661045 84.83616517 143.67333848 83.20953244 143.68035889 81.582901 C143.69234607 78.17068807 143.69603822 74.7585765 143.69485474 71.34634399 C143.69465141 66.97003422 143.72196024 62.59437289 143.75639915 58.2182169 C143.77861661 54.85792546 143.78269388 51.49779138 143.78163528 48.13743401 C143.78399878 46.52385153 143.79286426 44.91026521 143.80830002 43.29675484 C143.82785798 41.04117304 143.82216384 38.7870063 143.81008911 36.53140259 C143.81293915 35.24725967 143.81578918 33.96311676 143.81872559 32.64006042 C143.62699238 29.52288969 143.62699238 29.52288969 141.73389244 27.85139656 C138.46291435 26.04597859 136.00716081 26.13618598 132.27548218 26.12266541 C131.56560992 26.11601858 130.85573766 26.10937175 130.12435412 26.10252351 C127.74585309 26.08387187 125.36785415 26.08650016 122.98928833 26.08901978 C121.28427926 26.08000391 119.57927669 26.06967713 117.87428284 26.05813599 C113.24448503 26.03051915 108.61481005 26.02127512 103.98494053 26.01528192 C99.14688293 26.00591043 94.30891752 25.97970805 89.47091675 25.95527649 C80.30895746 25.91157404 71.14701603 25.88305008 61.98498416 25.85995311 C51.55456533 25.83292151 41.12423907 25.78900875 30.69388628 25.74366438 C9.23739037 25.65076446 -12.21913324 25.57910821 -33.67575073 25.52139282 C-33.3931522 23.92076281 -33.10011082 22.3219743 -32.80270386 20.72402954 C-32.64064453 19.83351898 -32.47858521 18.94300842 -32.31161499 18.0255127 C-31.4004583 14.43725382 -29.68770269 12.3252783 -27.17575073 9.64639282 C-26.38168823 8.76209595 -25.58762573 7.87779907 -24.76950073 6.96670532 C-17.2216542 1.00085692 -9.38043224 -0.06789107 0 0 Z " fill="#FDCD5C" transform="translate(95.67575073242188,138.47860717773438)"/>
<path d="M0 0 C8.29989671 4.74415631 13.91646251 9.366216 18.375 17.875 C18.973125 19.009375 19.57125 20.14375 20.1875 21.3125 C23.51912739 31.07628663 22.4334443 43.06750013 17.99609375 52.21875 C14.04241561 58.69706599 9.10140605 64.24274073 2.375 67.875 C1.38693359 68.42994141 1.38693359 68.42994141 0.37890625 68.99609375 C-8.39204569 73.27063863 -18.7058563 73.33129726 -28.0703125 71.02734375 C-38.23419758 67.19314158 -45.91781369 60.3281237 -50.74609375 50.62109375 C-55.01095232 40.71894807 -55.43206581 29.55526134 -51.625 19.4375 C-46.52618283 8.91137043 -38.6148318 2.07983504 -27.8203125 -2.25 C-18.52613539 -4.79510473 -8.5997588 -4.43192155 0 0 Z " fill="#343E48" transform="translate(156.625,300.125)"/>
<path d="M0 0 C0.65355469 0.41507812 1.30710937 0.83015625 1.98046875 1.2578125 C2.74746094 1.69351562 3.51445312 2.12921875 4.3046875 2.578125 C9.88233351 5.95237035 13.47138129 9.80174749 16.98046875 15.2578125 C17.55796875 16.1446875 18.13546875 17.0315625 18.73046875 17.9453125 C23.27588467 26.35433195 23.51891574 36.85053042 21.29296875 46.12109375 C20.35242432 48.32745423 19.28086108 50.24443247 17.98046875 52.2578125 C17.55636719 53.01191406 17.13226563 53.76601563 16.6953125 54.54296875 C11.88828086 62.56361485 4.81043133 68.42756889 -4.02734375 71.59375 C-15.07969123 74.04662085 -26.22916267 73.19268195 -36.01953125 67.2578125 C-42.91815881 62.441588 -47.17526236 56.66905876 -51.01953125 49.2578125 C-51.3959375 48.65582031 -51.77234375 48.05382812 -52.16015625 47.43359375 C-53.42396743 44.23385362 -53.35988124 41.08545239 -53.33203125 37.6953125 C-53.3263916 36.98366943 -53.32075195 36.27202637 -53.31494141 35.53881836 C-53.03868727 23.41782642 -49.17341557 13.97642441 -40.39453125 5.5078125 C-29.61243252 -3.20314862 -12.73015126 -7.04221133 0 0 Z " fill="#333E47" transform="translate(411.01953125,299.7421875)"/>
<path d="M0 0 C18.15 0 36.3 0 55 0 C55 18.15 55 36.3 55 55 C36.85 55 18.7 55 0 55 C0 36.85 0 18.7 0 0 Z " fill="#00CDD1" transform="translate(173,177)"/>
<path d="M0 0 C17.82 0 35.64 0 54 0 C54 18.15 54 36.3 54 55 C36.18 55 18.36 55 0 55 C0 36.85 0 18.7 0 0 Z " fill="#00D0D5" transform="translate(106,177)"/>
<path d="M0 0 C3.13671875 -0.48828125 3.13671875 -0.48828125 6.6875 -0.3125 C7.86699219 -0.26738281 9.04648437 -0.22226563 10.26171875 -0.17578125 C11.61716797 -0.08876953 11.61716797 -0.08876953 13 0 C13.18691406 0.61617187 13.37382812 1.23234375 13.56640625 1.8671875 C15.6723967 5.00035041 18.43515549 5.34712011 21.9375 6.125 C22.64914307 6.29330322 23.36078613 6.46160645 24.09399414 6.63500977 C29.35163142 7.80749426 34.57779373 8.45810691 39.9375 8.9375 C47.82568391 9.65708897 55.58500416 10.81320733 63.375 12.25 C64.45128662 12.43038818 65.52757324 12.61077637 66.63647461 12.79663086 C67.65104736 12.99264893 68.66562012 13.18866699 69.7109375 13.390625 C70.61118652 13.55594727 71.51143555 13.72126953 72.43896484 13.89160156 C76.06105922 15.45921915 78.26644089 17.50423883 80 21 C80.6562347 24.56494051 80.5839287 28.03391582 80.48828125 31.6484375 C80.48120651 32.66096588 80.47413177 33.67349426 80.46684265 34.71670532 C80.43895079 37.93690217 80.37622008 41.15533256 80.3125 44.375 C80.28741049 46.5637769 80.26459846 48.75258116 80.24414062 50.94140625 C80.1891416 56.29486912 80.10556775 61.64730834 80 67 C77.36 67.33 74.72 67.66 72 68 C69.78227509 76.27950633 69.39728885 84.47919963 69 93 C67.97334787 92.02738219 66.98290968 91.01680311 66 90 C65.14768799 89.22253418 64.29537598 88.44506836 63.41723633 87.64404297 C59.60852299 83.01324815 60.38115798 77.52886244 60.51171875 71.8203125 C60.51879349 70.6524118 60.52586823 69.48451111 60.53315735 68.28121948 C60.56107983 64.56182007 60.62381948 60.84394217 60.6875 57.125 C60.71258541 54.59898012 60.73539815 52.07293657 60.75585938 49.546875 C60.81089975 43.36406679 60.89450678 37.18214211 61 31 C59.75597412 30.92108521 59.75597412 30.92108521 58.48681641 30.84057617 C49.4173374 30.23312672 40.40235614 29.38527753 31.375 28.3125 C30.38790039 28.21062378 30.38790039 28.21062378 29.38085938 28.10668945 C17.01608773 26.82501231 6.42846419 23.80904863 -1.79296875 14.02734375 C-3 12 -3 12 -4 7 C-9.94 7 -15.88 7 -22 7 C-22 6.67 -22 6.34 -22 6 C-21.16021606 5.99383667 -21.16021606 5.99383667 -20.3034668 5.98754883 C-17.7637413 5.95462695 -15.22642019 5.88399306 -12.6875 5.8125 C-11.36588867 5.80379883 -11.36588867 5.80379883 -10.01757812 5.79492188 C-7.57825105 5.7114468 -5.36809497 5.59729227 -3 5 C-1.29202775 2.52871369 -1.29202775 2.52871369 0 0 Z " fill="#FB973B" transform="translate(371,217)"/>
<path d="M0 0 C10.23 0 20.46 0 31 0 C31 18.15 31 36.3 31 55 C26.38 55.33 21.76 55.66 17 56 C15.515 56.495 15.515 56.495 14 57 C13.67 58.32 13.34 59.64 13 61 C8.71 61 4.42 61 0 61 C0 40.87 0 20.74 0 0 Z " fill="#01D1D6" transform="translate(62,177)"/>
<path d="M0 0 C6.93 0 13.86 0 21 0 C21 27.72 21 55.44 21 84 C14.07 84 7.14 84 0 84 C0 56.28 0 28.56 0 0 Z " fill="#00D1D6" transform="translate(299,244)"/>
<path d="M0 0 C6.93 0 13.86 0 21 0 C21 27.72 21 55.44 21 84 C14.07 84 7.14 84 0 84 C0 56.28 0 28.56 0 0 Z " fill="#85F5F1" transform="translate(265,244)"/>
<path d="M0 0 C0.01417969 0.82242187 0.02835937 1.64484375 0.04296875 2.4921875 C0.43221941 11.60275707 2.0430403 19.61261595 9 26 C8.67773438 26.54914063 8.35546875 27.09828125 8.0234375 27.6640625 C6.84021607 30.36469767 6.73195213 32.43793004 6.625 35.375 C6.24455037 40.29460728 5.38803397 43.23551781 2 47 C-1.43233643 49.86028036 -4.51259381 50.59626282 -9.00390625 50.41796875 C-12.71909557 49.64003282 -14.42379365 47.76022109 -17 45 C-19.40854856 41.23009791 -19.34827649 37.53665716 -18.72265625 33.21484375 C-17.39283423 29.13911896 -14.62866947 27.08498135 -11 25 C-8.04928642 23.76547007 -5.09533546 22.80015474 -2 22 C-1.95758277 19.66705225 -1.95907063 17.33297433 -2 15 C-3.68997013 13.31002987 -5.74863286 13.74797246 -8.0625 13.6875 C-14.52381559 13.7711958 -18.93878045 15.18924387 -23.71875 19.578125 C-30.67336536 27.14638289 -31.33690552 34.00513628 -31 44 C-35.29 44 -39.58 44 -44 44 C-44.47706906 30.48304319 -42.46804205 20.28668648 -33.25390625 10.0625 C-23.52701602 0.67938759 -12.89004471 -0.79242078 0 0 Z " fill="#566371" transform="translate(402,297)"/>
<path d="M0 0 C0.33 0 0.66 0 1 0 C1 52.8 1 105.6 1 160 C-19.79 160 -40.58 160 -62 160 C-62.66 157.03 -63.32 154.06 -64 151 C-65.32 147.7 -66.64 144.4 -68 141 C-45.56 141 -23.12 141 0 141 C0 94.47 0 47.94 0 0 Z " fill="#F4963B" transform="translate(252,168)"/>
<path d="M0 0 C11.88 0 23.76 0 36 0 C36 11.88 36 23.76 36 36 C24.12 36 12.24 36 0 36 C0 24.12 0 12.24 0 0 Z " fill="#83F7F3" transform="translate(173,177)"/>
<path d="M0 0 C11.88 0 23.76 0 36 0 C36 11.88 36 23.76 36 36 C24.12 36 12.24 36 0 36 C0 24.12 0 12.24 0 0 Z " fill="#83F7F3" transform="translate(106,177)"/>
<path d="M0 0 C0.95261719 -0.00515625 1.90523438 -0.0103125 2.88671875 -0.015625 C5.3125 0.25 5.3125 0.25 7.3125 2.25 C7.5625 5.75 7.5625 5.75 7.3125 9.25 C4.97832549 11.58417451 3.5964838 11.82822367 0.4375 12.625 C-5.00676946 14.15680334 -5.00676946 14.15680334 -8.6875 18.25 C-9.91158897 22.76706071 -10.06168056 26.18653947 -8.5 30.625 C-6.13424707 34.07134823 -6.13424707 34.07134823 -2.6875 36.25 C1.60188857 36.6585132 4.17504983 36.73025674 8.125 35.0625 C11.51857657 32.25067942 13.13332057 30.07388611 13.57421875 25.5859375 C13.68913298 23.65027108 13.76875816 21.71210273 13.80859375 19.7734375 C14.3125 17.25 14.3125 17.25 16.15234375 15.40234375 C19.20294309 13.77498967 21.05199898 14.32855406 24.3125 15.25 C27.13746717 18.07496717 26.61244045 19.99798877 26.625 23.9375 C26.47978436 32.30875436 24.76330277 37.47777565 19.015625 43.671875 C12.69797432 49.5258449 6.33469696 49.88921361 -2.12109375 49.62890625 C-8.63314219 48.93704568 -12.5273316 46.75862615 -16.9375 42 C-21.86403278 35.64665718 -24.48112026 30.25786531 -24.12890625 22.0546875 C-22.88343192 14.14096566 -18.77074466 8.67465681 -12.75 3.625 C-8.56026516 0.83184344 -5.01124777 -0.02734651 0 0 Z " fill="#030303" transform="translate(393.6875,309.75)"/>
<path d="M0 0 C2.3125 2.1875 2.3125 2.1875 3 5 C2.18795587 8.17435434 1.31819425 9.68180575 -1 12 C-2.42730185 12.30284597 -3.86774929 12.54603519 -5.3125 12.75 C-8.62796009 13.44517712 -10.72034746 14.13478035 -13.0625 16.625 C-15.59603233 21.03824986 -15.63830878 22.97331838 -15 28 C-13.38129806 31.64207936 -11.57053617 34.16648143 -8 36 C-3.71061143 36.4085132 -1.13745017 36.48025674 2.8125 34.8125 C6.20607657 32.00067942 7.82082057 29.82388611 8.26171875 25.3359375 C8.37663298 23.40027108 8.45625816 21.46210273 8.49609375 19.5234375 C9 17 9 17 10.83984375 15.15234375 C13.89044309 13.52498967 15.73949898 14.07855406 19 15 C21.89590583 17.89590583 21.33487511 20.08843567 21.375 24.125 C21.32528676 31.61749511 20.34533831 36.49402958 15.12890625 41.9609375 C8.07034489 48.49911343 2.20020817 49.5746435 -7.33203125 49.3046875 C-14.33752917 48.72276116 -18.10289077 46.20308419 -22.875 41.1875 C-28.65303842 34.00114697 -28.86285194 25.92719889 -28 17 C-26.26833033 10.34731967 -21.54670911 5.82175488 -16 2 C-10.81240101 -0.52210097 -5.67364012 -0.8756169 0 0 Z " fill="#030303" transform="translate(144,310)"/>
<path d="M0 0 C6.93 0 13.86 0 21 0 C21 18.15 21 36.3 21 55 C14.07 55 7.14 55 0 55 C0 36.85 0 18.7 0 0 Z " fill="#00D0D5" transform="translate(299,177)"/>
<path d="M0 0 C6.93 0 13.86 0 21 0 C21 18.15 21 36.3 21 55 C14.07 55 7.14 55 0 55 C0 36.85 0 18.7 0 0 Z " fill="#84F4F0" transform="translate(265,177)"/>
<path d="M0 0 C8.58 0 17.16 0 26 0 C26 13.2 26 26.4 26 40 C21.71 40 17.42 40 13 40 C12.01 38.35 11.02 36.7 10 35 C6.7 34.67 3.4 34.34 0 34 C0 22.78 0 11.56 0 0 Z " fill="#00D0D5" transform="translate(358,177)"/>
<path d="M0 0 C2.35125 0.04125 4.7025 0.0825 7.125 0.125 C7.125 5.075 7.125 10.025 7.125 15.125 C6.135 14.795 5.145 14.465 4.125 14.125 C-3.03364578 13.41954379 -8.98178588 13.75678427 -14.875 18.125 C-22.86393003 25.13347043 -24.15987243 33.97018844 -24.875 44.125 C-28.835 44.125 -32.795 44.125 -36.875 44.125 C-37.63814926 31.71110541 -36.3729081 22.21195712 -28.1875 12.25 C-20.40498245 4.14382388 -11.25458322 -0.28130235 0 0 Z " fill="#566371" transform="translate(139.875,296.875)"/>
<path d="M0 0 C4.37859255 0.50522222 6.81651224 3.17827222 10 6 C9.51853516 6.82177734 9.51853516 6.82177734 9.02734375 7.66015625 C7.83806034 10.36882834 7.69736749 12.49084958 7.5625 15.4375 C7.15834569 20.76241028 5.97261733 23.69861312 2.5 27.75 C-0.49980393 30.24983661 -4.06571287 30.44995314 -7.86328125 30.421875 C-11.77929961 29.64869404 -14.48716579 26.99355032 -17 24 C-18.2569438 20.22916859 -18.7285851 16.90007321 -18 13 C-16.48595366 10.02969535 -14.69820263 7.95784215 -12 6 C-9.65994182 5.24783844 -7.42044777 4.82867399 -4.9921875 4.46484375 C-2.75681761 4.13250853 -2.75681761 4.13250853 -0.9375 1.875 C-0.628125 1.25625 -0.31875 0.6375 0 0 Z " fill="#E2DCCE" transform="translate(146,317)"/>
<path d="M0 0 C4.37859255 0.50522222 6.81651224 3.17827222 10 6 C9.67773438 6.54914063 9.35546875 7.09828125 9.0234375 7.6640625 C7.84021607 10.36469767 7.73195213 12.43793004 7.625 15.375 C7.24455037 20.29460728 6.38803397 23.23551781 3 27 C-0.43233643 29.86028036 -3.51259381 30.59626282 -8.00390625 30.41796875 C-11.71909557 29.64003282 -13.42379365 27.76022109 -16 25 C-18.40854856 21.23009791 -18.34827649 17.53665716 -17.72265625 13.21484375 C-16.39422041 9.14336743 -13.63077499 7.07664252 -10 5 C-7.6246811 4.06056519 -5.28915513 3.29340373 -2.8203125 2.640625 C-0.79229211 2.16395125 -0.79229211 2.16395125 0 0 Z " fill="#E1DCCE" transform="translate(401,317)"/>
<path d="M0 0 C0 0.33 0 0.66 0 1 C-0.94875 1.28875 -1.8975 1.5775 -2.875 1.875 C-6.05211578 2.76825109 -6.05211578 2.76825109 -8 5 C-8.33333333 7.5 -8.33333333 7.5 -8 10 C-4.93342525 13.50043567 -4.93342525 13.50043567 7 13 C7 23.23 7 33.46 7 44 C2.71 44 -1.58 44 -6 44 C-6.2475 42.700625 -6.495 41.40125 -6.75 40.0625 C-7.4774876 36.63215703 -8.48556057 33.98803504 -10.1875 30.9375 C-14.10047199 22.68971145 -11.7159506 11.30334517 -9 3 C-6.6365737 -0.66331076 -4.12902097 -0.27526806 0 0 Z " fill="#353E47" transform="translate(451,284)"/>
<path d="M0 0 C0.33 0 0.66 0 1 0 C1 46.53 1 93.06 1 141 C7.27 141 13.54 141 20 141 C19.38125 142.27875 18.7625 143.5575 18.125 144.875 C15.89612087 149.846507 14.90606905 154.63909146 14 160 C9.38 160 4.76 160 0 160 C0 107.2 0 54.4 0 0 Z " fill="#D68A38" transform="translate(332,168)"/>
<path d="M0 0 C3.96 0 7.92 0 12 0 C12 11.88 12 23.76 12 36 C8.04 36 4.08 36 0 36 C0 24.12 0 12.24 0 0 Z " fill="#84F7F3" transform="translate(62,177)"/>
<path d="M0 0 C6.93 0 13.86 0 21 0 C21 6.27 21 12.54 21 19 C14.07 19 7.14 19 0 19 C0 12.73 0 6.46 0 0 Z " fill="#02D1D6" transform="translate(265,309)"/>
<path d="M0 0 C3.96 0 7.92 0 12 0 C12 10.23 12 20.46 12 31 C8.04 31 4.08 31 0 31 C0 20.77 0 10.54 0 0 Z " fill="#586674" transform="translate(54,297)"/>
<path d="M0 0 C5.94 0 11.88 0 18 0 C17.38125 1.464375 16.7625 2.92875 16.125 4.4375 C14.18847998 9.25133169 12.98480868 13.91182184 12 19 C8.04 19 4.08 19 0 19 C0 12.73 0 6.46 0 0 Z " fill="#FB973B" transform="translate(79,309)"/>
<path d="M0 0 C4.33055443 3.27197446 7.1090817 5.74744918 9 11 C9 13.31 9 15.62 9 18 C3.39 18 -2.22 18 -8 18 C-8 11.24483776 -8 11.24483776 -5.6875 7.875 C-5.23375 7.20210937 -4.78 6.52921875 -4.3125 5.8359375 C-1.44803695 1.82909931 -1.44803695 1.82909931 0 0 Z " fill="#FB963A" transform="translate(374,146)"/>
<path d="M0 0 C0.66 0.33 1.32 0.66 2 1 C-1.63 4.63 -5.26 8.26 -9 12 C-9 8.47601214 -8.44884893 7.98495633 -6.1875 5.4375 C-5.40439453 4.53837891 -5.40439453 4.53837891 -4.60546875 3.62109375 C-3 2 -3 2 0 0 Z " fill="#1B160A" transform="translate(110,294)"/>
</g>
</svg>
